<?xml version="1.0" encoding="UTF-8" standalone="no"?>
        <svg 
    viewBox="3.4423828125 -86.865234375 449.4140625 57.12890625"
    width="445.9716796875"
    height="143.994140625"
   xmlns="http://www.w3.org/2000/svg"
   xmlns:svg="http://www.w3.org/2000/svg">
   <path d="M15.75-30.18L17.29-30.91Q25.71-28.71 30.10-25.56Q34.50-22.41 35.78-19.01Q37.06-15.60 36.00-12.74Q34.94-9.89 32.34-8.28Q29.74-6.67 26.40-7.03Q23.07-7.40 19.92-10.47L19.92-10.47Q20.29-15.67 18.97-20.98Q17.65-26.29 15.75-30.18L15.75-30.18ZM120.92-10.03L120.92-125.98L145.97-123.63Q145.75-121.95 144.47-120.89Q143.19-119.82 140.41-119.38L140.41-119.38L140.41-8.72Q140.41-1.98 138.79 2.78Q137.18 7.54 132.02 10.33Q126.86 13.11 116.09 14.14L116.09 14.14Q115.80 9.23 115.06 5.79Q114.33 2.34 112.50 0L112.50 0Q110.67-2.27 107.96-3.85Q105.25-5.42 99.61-6.45L99.61-6.45L99.61-8.42Q99.61-8.42 101.92-8.28Q104.22-8.13 107.48-7.95Q110.74-7.76 113.71-7.62Q116.67-7.47 117.92-7.47L117.92-7.47Q120.92-7.47 120.92-10.03L120.92-10.03ZM34.79-129.13L34.79-129.13L46.51-118.36L72.73-118.36L80.71-125.98L94.92-114.48L94.92-116.09L118.21-113.96Q117.99-112.57 116.97-111.55Q115.94-110.52 113.23-110.08L113.23-110.08L113.23-27.76Q113.23-27.03 110.96-25.82Q108.69-24.61 105.29-23.62Q101.88-22.63 98.36-22.63L98.36-22.63L94.92-22.63L94.92-114.18Q93.46-112.43 89.72-111.77L89.72-111.77Q88.92-95.65 87.34-87.74Q85.77-79.83 81.59-76.68L81.59-76.68Q79.10-74.85 75.95-74.16Q72.80-73.46 69.29-73.32L69.29-73.32Q69.29-75.81 68.88-78.11Q68.48-80.42 67.53-81.88L67.53-81.88Q65.33-85.25 60.13-86.87L60.13-86.87L60.13-88.77Q62.40-88.55 64.97-88.44Q67.53-88.33 68.99-88.33L68.99-88.33Q70.24-88.33 70.83-89.28L70.83-89.28Q72.07-90.82 72.88-96.64Q73.68-102.47 74.12-114.18L74.12-114.18L68.55-114.18Q67.75-104.15 63.98-95.21Q60.21-86.28 49.95-80.13L49.95-80.13L64.67-77.27Q64.23-75.81 62.55-74.93Q60.86-74.05 57.28-73.97L57.28-73.97Q69.51-72.95 76.61-70.13Q83.72-67.31 86.68-63.61Q89.65-59.91 89.54-56.32Q89.43-52.73 87.12-50.17Q84.81-47.61 81.30-47.02Q77.78-46.44 74.12-48.93L74.12-48.93L73.97-49.22Q73.32-47.53 70.53-47.53L70.53-47.53L56.69-47.53L56.69-37.06L63.87-37.06L71.85-46.95Q71.85-46.95 74.38-45.04Q76.90-43.14 80.38-40.43Q83.86-37.72 86.72-35.23L86.72-35.23Q86.06-32.89 82.62-32.89L82.62-32.89L56.69-32.89L56.69-7.62L58.96-7.76Q60.64-12.89 62.18-19.52Q63.72-26.15 64.67-31.35L64.67-31.35L85.47-24.17Q84.96-22.92 83.57-22.16Q82.18-21.39 79.83-21.61L79.83-21.61Q76.54-18.68 71.92-15.01Q67.31-11.35 62.55-8.13L62.55-8.13L91.63-10.18L91.77-8.13Q79.76-4.25 61.93 0.55Q44.09 5.35 18.31 11.43L18.31 11.43Q16.70 14.14 13.77 14.87L13.77 14.87L6.30-4.98Q11.50-5.05 19.78-5.46Q28.05-5.86 38.38-6.45L38.38-6.45L38.38-32.89L9.30-32.89L8.13-37.06L38.38-37.06L38.38-47.53L26.07-47.53L25.49-49.51Q20.58-46.66 15.31-44.31Q10.03-41.97 4.61-40.06L4.61-40.06L3.74-41.24Q10.99-46.80 17.47-54.09Q23.95-61.38 29.00-68.88Q34.06-76.39 36.91-82.62L36.91-82.62L47.97-80.57L47.09-81.45Q48.19-83.28 49.04-85.07Q49.88-86.87 50.54-88.77L50.54-88.77Q48.63-86.13 44.97-85.51Q41.31-84.89 37.50-88.04L37.50-88.04L37.21-91.63Q33.84-87.96 28.97-82.91Q24.10-77.86 17.58-71.70L17.58-71.70Q16.85-68.48 14.43-67.53L14.43-67.53L3.44-84.16L10.33-86.13L10.33-123.12L26.51-118.80Q29.15-121.73 31.35-124.55Q33.54-127.37 34.79-129.13ZM73.17-51.12L73.17-51.12Q70.97-56.10 66.58-62.00Q62.18-67.90 56.25-72.73L56.25-72.73Q51.20-67.46 44.35-62.04Q37.50-56.62 29.37-51.78L29.37-51.78L52.66-51.78L60.28-61.38Q60.28-61.38 62.40-59.77Q64.53-58.15 67.53-55.81Q70.53-53.47 73.17-51.12ZM30.62-107.67L32.08-108.47Q42.77-106.42 47.24-102.36Q51.71-98.29 52.08-94.34L52.08-94.34Q53.03-99.10 53.32-104.04Q53.61-108.98 53.69-114.18L53.69-114.18L50.10-114.18Q48.71-112.94 45.63-114.18L45.63-114.18Q42.70-113.23 37.61-112.32Q32.52-111.40 27.03-110.67L27.03-110.67L27.03-91.48L36.47-94.78Q35.52-98.36 33.95-101.81Q32.37-105.25 30.62-107.67L30.62-107.67ZM271.22-34.94L271.22-34.94L293.70-19.34Q291.72-17.14 286.52-18.31L286.52-18.31Q270.41-6.52 254.11 0.26Q237.82 7.03 220.39 10.11Q202.95 13.18 183.33 13.92L183.33 13.92L182.89 11.87Q200.32 7.91 216.06 2.20Q231.81-3.52 245.62-12.45Q259.42-21.39 271.22-34.94ZM262.06-57.13L262.06-57.13L281.25-42.77Q280.44-41.75 279.09-41.42Q277.73-41.09 275.39-41.82L275.39-41.82Q266.46-35.60 253.64-30.36Q240.82-25.12 225.55-21.53Q210.28-17.94 194.09-16.63L194.09-16.63L193.36-18.60Q207.28-22.71 220.53-28.89Q233.79-35.08 244.59-42.37Q255.40-49.66 262.06-57.13ZM157.03-75L155.86-79.17L241.19-79.17Q239.06-80.64 236.10-82.32Q233.13-84.01 229.61-85.99L229.61-85.99Q218.26-83.72 205.66-82.40Q193.07-81.08 181.05-81.01L181.05-81.01L180.62-83.13Q189.26-84.81 198.12-87.41Q206.98-90.01 215.11-93.16L215.11-93.16Q204.13-98.29 191.24-102.91L191.24-102.91L191.67-104.88Q205.30-105.18 215.52-104.08Q225.73-102.98 232.76-100.93L232.76-100.93Q234.96-102.10 236.94-103.20Q238.92-104.30 240.75-105.47L240.75-105.47L165.01-105.47L163.77-109.64L213.72-109.64L213.72-128.10L240.31-126.12Q240.09-124.66 239.14-123.67Q238.18-122.68 235.47-122.24L235.47-122.24L235.47-109.64L256.05-109.64L267.33-123.63Q267.33-123.63 269.42-122.09Q271.51-120.56 274.73-118.14Q277.95-115.72 281.51-113.01Q285.06-110.30 287.99-107.89L287.99-107.89Q287.33-105.47 283.67-105.47L283.67-105.47L252.91-105.47L267.63-96.31Q266.67-95.07 264.40-94.45Q262.13-93.82 258.47-94.48L258.47-94.48Q256.79-93.68 254.85-92.91Q252.91-92.14 250.78-91.48L250.78-91.48Q254.15-87.82 253.82-84.41Q253.49-81.01 250.78-79.17L250.78-79.17L264.18-79.17L275.68-93.31Q275.68-93.31 277.77-91.77Q279.86-90.23 283.12-87.78Q286.38-85.33 289.97-82.58Q293.55-79.83 296.56-77.42L296.56-77.42Q296.19-76.17 294.98-75.59Q293.77-75 292.24-75L292.24-75L251.07-75L269.68-60.13Q268.95-59.25 267.66-58.92Q266.38-58.59 263.96-59.40L263.96-59.40Q256.13-55.52 245.32-52.29Q234.52-49.07 222.25-46.84Q209.99-44.60 197.68-43.80L197.68-43.80L196.80-45.78Q206.98-49.15 217.35-54.02Q227.71-58.89 236.46-64.34Q245.21-69.80 250.78-75L250.78-75L196.22-75Q195.85-61.01 194.53-48.27Q193.21-35.52 189.22-24.24Q185.23-12.96 177.10-3.30Q168.97 6.37 155.13 14.28L155.13 14.28L153.59 12.30Q161.35 2.93 165.56-7.25Q169.78-17.43 171.50-28.38Q173.22-39.33 173.55-50.98Q173.88-62.62 173.88-75L173.88-75L157.03-75ZM375.59-122.53L376.98-123.27Q385.40-121.58 389.94-118.65Q394.48-115.72 395.91-112.46Q397.34-109.20 396.42-106.35Q395.51-103.49 393.02-101.77Q390.53-100.05 387.23-100.23Q383.94-100.42 380.71-103.34L380.71-103.34Q381.01-108.40 379.43-113.67Q377.86-118.95 375.59-122.53L375.59-122.53ZM424.66-124.22L424.66-124.22L445.53-116.09Q445.17-114.99 443.81-114.15Q442.46-113.31 439.97-113.53L439.97-113.53Q436.82-111.11 431.29-107.56Q425.76-104.00 420.48-101.07L420.48-101.07L419.24-101.88Q420.26-105.25 421.36-109.46Q422.46-113.67 423.34-117.63Q424.22-121.58 424.66-124.22ZM363.43-39.33L369.29-46.51L375.73-41.09Q379.17-53.76 380.57-67.24L380.57-67.24L399.17-62.70L399.17-80.13Q394.12-75.73 388.11-72.00Q382.10-68.26 375.59-65.26L375.59-65.26L375.59-58.67Q375.51-58.15 373.50-57.20Q371.48-56.25 368.70-55.52Q365.92-54.79 363.57-54.79L363.57-54.79L361.08-54.79L361.08-58.37L324.02-58.37Q324.02-49.95 323.47-41.09Q322.92-32.23 321.02-23.44Q319.12-14.65 315.05-6.45Q310.99 1.76 303.88 8.72L303.88 8.72L302.12 7.47Q305.86-2.42 307.25-13.99Q308.64-25.56 308.83-37.79Q309.01-50.02 309.01-61.96L309.01-61.96L309.01-114.92L326.51-108.47L334.94-108.47L334.94-127.08L358.67-125.10Q358.45-123.78 357.42-122.79Q356.40-121.80 353.69-121.36L353.69-121.36L353.69-108.47L355.08-108.47L363.43-119.09Q363.43-119.09 366.06-117.08Q368.70-115.06 372.29-112.17Q375.88-109.28 378.74-106.64L378.74-106.64Q378.08-104.22 374.71-104.22L374.71-104.22L324.02-104.22L324.02-90.16L328.20-90.16L328.20-103.64L343.07-102.17Q342.85-99.98 340.36-99.61L340.36-99.61L340.36-90.16L344.38-90.16L344.38-103.64L359.25-102.17Q359.03-99.98 356.54-99.61L356.54-99.61L356.54-90.16L359.84-90.16L366.43-96.90L379.83-86.87Q378.74-85.25 375.59-84.59L375.59-84.59L375.59-69.43Q380.57-74.63 384.52-81.01Q388.48-87.38 391.19-93.90L391.19-93.90L372.44-93.90L371.26-98.07L399.17-98.07L399.17-127.95L422.68-125.83Q422.46-124.29 421.36-123.19Q420.26-122.09 417.11-121.66L417.11-121.66L417.11-98.07L424.95-98.07L432.57-107.67Q432.57-107.67 435.02-105.83Q437.48-104.00 440.81-101.37Q444.14-98.73 446.85-96.31L446.85-96.31Q446.19-93.90 442.82-93.90L442.82-93.90L422.24-93.90Q427.00-90.09 433.63-87.60Q440.26-85.11 447.00-84.01L447.00-84.01L446.85-82.32Q437.70-79.54 434.69-65.55L434.69-65.55Q428.17-70.17 424.00-77.31Q419.82-84.45 417.11-93.90L417.11-93.90L417.11-65.84Q417.11-65.19 414.88-64.16Q412.65-63.13 409.24-62.33Q405.83-61.52 402.32-61.52L402.32-61.52L399.17-61.52L399.17-62.26Q398.14-59.47 393.90-59.25L393.90-59.25Q392.36-54.05 390.31-49.37L390.31-49.37L391.19-49.37L398.07-56.40L406.49-49.37L421.95-49.37L421.95-64.82L440.70-62.99Q440.48-61.89 439.71-61.12Q438.94-60.35 436.96-59.99L436.96-59.99L436.96-51.78L440.11-56.40Q440.11-56.40 441.65-54.97Q443.19-53.54 445.28-51.49Q447.36-49.44 448.97-47.53L448.97-47.53Q448.54-45.12 445.39-45.12L445.39-45.12L436.96-45.12L436.96-15.75L440.11-20.43Q440.11-20.43 441.72-18.90Q443.33-17.36 445.50-15.20Q447.66-13.04 449.41-11.13L449.41-11.13Q448.97-8.72 445.68-8.72L445.68-8.72L436.96-8.72L436.96 9.74Q436.96 10.40 435.06 11.43Q433.15 12.45 430.37 13.29Q427.59 14.14 424.95 14.14L424.95 14.14L421.95 14.14L421.95-8.72L397.92-8.72L396.75-12.89L406.79-12.89L406.79-43.80L405.32-43.51Q403.42-32.08 399.32-21.35Q395.21-10.62 387.71-1.50Q380.20 7.62 367.97 14.28L367.97 14.28L366.72 12.16Q373.24 6.74 378.00 0L378.00 0Q374.19 2.86 364.97 2.86L364.97 2.86L360.13 2.86Q353.17 2.86 351.42 0.26Q349.66-2.34 349.66-8.57L349.66-8.57L349.66-12.74Q346.73-9.52 342.19-4.65Q337.65 0.22 331.35 6.30L331.35 6.30Q330.47 9.45 327.76 10.18L327.76 10.18L317.58-8.13L327.32-9.89L327.32-54.79L345.12-52.95Q345.04-51.71 344.13-50.83Q343.21-49.95 341.09-49.66L341.09-49.66L341.09-38.53L344.09-43.80L349.66-37.21L349.66-54.79L367.97-52.95Q367.75-51.64 366.65-50.57Q365.55-49.51 363.43-49.22L363.43-49.22L363.43-39.33ZM328.20-85.99L324.02-85.99L324.02-62.55L328.20-62.55L328.20-85.99ZM348.63-31.49L341.09-31.49L341.09-12.89L349.66-14.87L349.66-31.64L348.63-31.49ZM344.38-85.99L340.36-85.99L340.36-62.55L344.38-62.55L344.38-85.99ZM361.08-85.99L356.54-85.99L356.54-62.55L361.08-62.55L361.08-85.99ZM380.57-5.27L380.42-3.74Q384.52-11.06 387.16-18.75L387.16-18.75Q385.47-18.60 383.64-19.26Q381.81-19.92 380.13-21.75L380.13-21.75Q381.30-26.29 380.42-30.62L380.42-30.62Q375.51-23.44 370.02-18.60L370.02-18.60L367.82-19.78Q369.36-22.92 370.90-26.62Q372.44-30.32 373.68-34.35L373.68-34.35L363.43-31.93L363.43-12.30Q363.43-10.33 364.97-10.33L364.97-10.33L366.43-10.33Q366.80-10.33 367.27-10.33Q367.75-10.33 368.12-10.33L368.12-10.33Q369.43-10.33 370.17-11.13L370.17-11.13Q370.97-11.87 372.03-14.61Q373.10-17.36 374.12-20.21L374.12-20.21L375.73-20.21L376.17-10.99Q378.81-9.81 379.69-8.53Q380.57-7.25 380.57-5.27L380.57-5.27ZM421.95-12.89L421.95-45.12L418.36-45.12L418.36-12.89L421.95-12.89ZM384.16-36.62L384.16-36.62Q388.40-34.57 390.60-32.37L390.60-32.37Q391.77-38.82 392.43-45.12L392.43-45.12L388.48-45.12Q387.45-42.92 386.43-40.76Q385.40-38.60 384.16-36.62Z"/>
    </svg>
        