<svg width="281" height="281" version="1.1" xmlns="http://www.w3.org/2000/svg" xmlns:xlink="http://www.w3.org/1999/xlink"><path d="M172.53 36.51L172.53 36.51Q172.53 38.76 169.72 44.10L169.72 44.10L168.88 46.34Q168.04 49.15 164.39 69.95L164.39 69.95Q161.01 90.18 149.49 99.45L149.49 99.45L144.72 99.17Q142.47 95.52 131.51 83.15L131.51 83.15Q130.38 81.75 129.26 80.63L129.26 80.63L129.26 79.50L142.19 82.87Q144.72 83.15 146.40 82.31L146.40 82.31Q153.71 78.94 155.39 57.02L155.39 57.02Q156.24 46.91 154.83 42.13L154.83 42.13L152.86 41.29Q142.19 43.53 131.23 47.19L131.23 47.19Q136.57 51.96 137.41 54.77L137.41 54.77Q125.05 76.97 118.02 84.28L118.02 84.28Q111.28 91.30 103.69 94.68L103.69 94.68L103.13 92.43Q118.30 73.88 122.24 64.33L122.24 64.33Q125.33 56.74 125.61 49.15L125.61 49.15L116.62 51.12Q115.49 51.12 114.09 50.56L114.09 50.56Q107.90 48.31 107.62 45.78L107.62 45.78Q110.15 44.38 122.80 42.69L122.80 42.69Q125.05 42.41 126.73 41.85L126.73 41.85Q147.24 36.79 155.39 30.89L155.39 30.89Q160.45 30.89 172.53 36.51ZM225.08 249.51L225.08 249.51Q220.59 249.23 215.25 241.36L215.25 241.36Q213.00 238.27 211.87 237.14L211.87 237.14Q207.38 232.08 191.64 221.41L191.64 221.41Q188.27 218.88 185.74 216.91L185.74 216.91L185.46 215.51Q187.15 214.66 200.92 216.91L200.92 216.91Q216.09 219.16 217.78 212.98L217.78 212.98L218.62 207.92L217.78 86.81Q217.78 62.92 217.78 61.52L217.78 61.52Q216.37 45.78 207.94 37.07L207.94 37.07Q207.94 30.61 219.46 33.70L219.46 33.70Q230.98 37.07 235.20 43.25L235.20 43.25Q236.32 44.94 236.32 46.62L236.32 46.62Q236.32 47.75 234.07 56.18L234.07 56.18L233.51 58.71Q231.83 73.60 231.26 85.96L231.26 85.96L231.26 149.19L234.92 204.27Q235.76 242.20 225.08 249.51ZM189.68 92.43L189.68 92.43L187.99 146.10Q186.87 165.77 182.93 169.98L182.93 169.98Q179.56 169.98 176.19 164.08L176.19 164.08Q175.63 163.24 175.34 162.96L175.34 162.96Q173.94 154.81 176.19 130.64L176.19 130.64Q178.44 104.51 171.97 89.62L171.97 89.62Q171.97 86.53 173.66 85.12L173.66 85.12Q184.34 86.25 189.68 92.43ZM93.29 77.25L93.29 77.25Q67.44 105.35 58.17 117.16L58.17 117.16Q53.39 116.31 50.02 109.85L50.02 109.85Q49.18 107.88 49.18 106.20L49.18 106.20Q48.89 104.51 51.70 98.61L51.70 98.61L52.27 96.92Q55.64 85.12 51.70 68.26L51.70 68.26Q49.18 58.15 44.68 52.81L44.68 52.81Q44.40 45.78 57.89 54.49L57.89 54.49Q58.73 55.05 59.01 55.34L59.01 55.34L74.47 36.51Q78.68 30.61 79.80 26.95L79.80 26.95L80.65 21.62Q80.93 21.05 81.77 20.77L81.77 20.77Q86.83 19.09 96.66 28.36L96.66 28.36Q98.35 29.76 99.47 31.17L99.47 31.17Q99.19 34.54 92.73 37.35L92.73 37.35Q90.48 38.48 89.36 39.04L89.36 39.04L60.70 59.55Q59.85 69.95 60.98 83.15L60.98 83.15L62.10 91.58L63.51 92.99Q69.69 89.90 85.99 77.82L85.99 77.82Q88.80 75.57 90.76 74.16L90.76 74.16Q90.76 72.76 87.39 66.29L87.39 66.29Q84.86 61.24 87.39 58.71L87.39 58.71L98.63 66.29Q102.28 69.39 103.13 72.48L103.13 72.48Q103.69 73.88 103.69 75.57L103.69 75.57Q103.69 84.84 96.38 79.78L96.38 79.78Q94.98 78.94 93.29 77.25ZM152.02 134.58L151.74 134.58Q129.26 121.37 108.75 111.82L108.75 111.82L75.59 146.10Q45.80 175.04 22.20 175.04L22.20 175.04Q55.08 150.31 60.70 145.54L60.70 145.54Q87.67 122.78 95.54 104.23L95.54 104.23L98.07 97.49L98.35 97.20Q108.47 97.77 114.09 103.11L114.09 103.11L112.68 107.32Q145.84 114.63 151.74 120.25L151.74 120.25Q155.67 124.18 156.80 130.36L156.80 130.36L156.52 133.73Q155.96 134.86 154.55 135.14L154.55 135.14L152.02 134.58ZM148.65 180.38L148.65 180.38Q139.94 185.16 123.08 198.36L123.08 198.36L120.83 198.36L120.83 196.12Q129.54 183.19 130.95 179.54L130.95 179.54Q132.63 174.76 132.63 169.98L132.63 169.98Q137.69 168.58 144.15 173.07L144.15 173.07Q149.21 176.45 148.65 180.38ZM151.18 197.52L153.71 197.80Q153.71 202.30 145.56 205.67L145.56 205.67Q136.00 210.17 122.24 214.94L122.24 214.94Q84.30 228.99 65.47 239.67L65.47 239.67Q59.57 238.83 50.30 231.52L50.30 231.52Q48.89 230.68 48.33 229.84L48.33 229.84Q46.65 228.15 46.93 225.62L46.93 225.62Q46.93 225.06 46.93 224.22L46.93 224.22Q48.89 221.41 55.64 222.25L55.64 222.25Q56.76 222.53 57.61 222.53L57.61 222.53Q63.51 222.53 92.45 214.38L92.45 214.38Q96.66 213.26 99.47 212.41L99.47 212.41L99.76 175.04L79.52 179.26Q71.09 180.10 65.47 176.73L65.47 176.73L64.63 174.76L97.79 166.61L98.91 166.05Q100.04 161.27 97.51 151.72L97.51 151.72Q97.23 150.88 97.23 150.03L97.23 150.03Q84.86 148.91 83.18 148.35L83.18 148.35Q80.65 147.50 78.68 145.82L78.68 145.82Q78.96 144.13 82.61 142.73L82.61 142.73Q86.55 142.73 106.22 136.54L106.22 136.54Q127.29 129.80 134.04 136.26L134.04 136.26Q134.04 139.07 131.23 140.20L131.23 140.20L107.06 147.22Q111.56 150.03 113.24 159.87L113.24 159.87L128.42 155.37Q135.72 154.25 140.50 159.02L140.50 159.02Q140.50 163.52 120.55 168.86L120.55 168.86Q114.09 170.55 112.40 171.39L112.40 171.39L110.15 208.76Q119.71 207.08 149.49 197.80L149.49 197.80Q150.34 197.80 151.18 197.52L151.18 197.52ZM85.42 198.93L85.42 198.93L85.71 207.08L84.58 209.60L83.46 210.17Q77.56 209.04 69.97 200.05L69.97 200.05Q64.91 194.15 62.10 192.18L62.10 192.18L62.38 187.41Q78.68 191.62 83.74 196.96L83.74 196.96Q84.58 197.80 85.42 198.93Z" stroke="#000" fill="black" /></svg>