<svg width="281" height="281" version="1.1" xmlns="http://www.w3.org/2000/svg" xmlns:xlink="http://www.w3.org/1999/xlink"><path d="M172.25 43.29L172.25 43.29Q172.25 52.00 169.16 53.97L169.16 53.97Q160.17 53.97 149.49 43.29L149.49 43.29Q143.87 37.95 141.91 36.26L141.91 36.26L141.06 31.20L144.15 29.80Q167.20 29.80 172.25 43.29ZM221.99 61.27L221.99 61.27Q221.99 63.80 218.62 64.92L218.62 64.92Q218.06 65.21 205.41 66.33L205.41 66.33Q204.01 66.61 203.16 66.61L203.16 66.61Q185.18 68.86 173.10 71.39L173.10 71.39Q177.03 73.35 180.12 79.26L180.12 79.26Q179.84 82.07 173.94 86.84L173.94 86.84Q171.69 88.81 170.57 90.21L170.57 90.21L167.48 93.59Q184.06 97.24 189.39 103.42L189.39 103.42L191.64 106.79Q191.64 111.57 190.24 113.26L190.24 113.26L160.17 103.98L156.80 103.14Q138.25 118.03 118.58 123.93L118.58 123.93L114.37 123.37L139.94 105.67Q143.59 102.58 146.68 99.77L146.68 99.77L127.29 92.46L126.73 92.18L126.73 90.50L153.71 92.18Q162.70 80.66 164.39 73.07L164.39 73.07Q161.01 72.51 99.19 84.31L99.19 84.31Q88.80 82.07 86.27 75.60L86.27 75.60L88.23 74.20Q139.94 66.33 177.03 59.59L177.03 59.59L199.79 53.97Q214.97 51.72 221.99 61.27ZM196.98 172.27L196.98 172.27L196.42 176.48L167.20 202.33Q134.32 229.31 112.96 227.90L112.96 227.90L148.09 200.65Q171.41 180.98 176.19 164.96L176.19 164.96Q178.44 162.99 186.02 165.24L186.02 165.24L194.17 169.18Q196.14 170.58 196.98 172.27ZM233.23 117.19L233.23 117.19Q232.11 124.50 184.90 130.96L184.90 130.96Q174.22 132.36 171.69 132.93L171.69 132.93Q180.96 135.74 183.49 139.67L183.49 139.67Q183.49 143.32 177.87 148.38L177.87 148.38Q176.75 149.22 176.19 149.79L176.19 149.79Q151.46 172.27 138.81 179.85L138.81 179.85Q121.67 189.97 108.19 189.13L108.19 189.13L138.25 166.65Q161.29 147.54 164.10 134.05L164.10 134.05Q160.45 134.05 131.23 137.70L131.23 137.70Q113.24 139.95 101.44 138.27L101.44 138.27Q98.07 147.26 94.42 172.55L94.42 172.55Q93.85 175.36 93.57 177.61L93.57 177.61Q81.77 242.80 38.78 262.75L38.78 262.75L33.72 265.00L25.29 265.00L26.13 262.47Q56.48 241.67 69.41 211.04L69.41 211.04Q73.06 202.61 75.03 194.18L75.03 194.18Q82.33 160.75 81.77 146.41L81.77 146.41Q81.49 133.21 76.71 124.22L76.71 124.22Q76.71 121.12 79.24 120.28L79.24 120.28Q84.58 120.56 96.10 127.59L96.10 127.59Q98.63 128.99 100.04 129.84L100.04 129.84Q135.16 127.87 177.03 118.88L177.03 118.88L206.82 111.01Q209.91 110.73 212.44 110.45L212.44 110.45Q219.46 109.60 225.36 111.57L225.36 111.57Q230.70 113.54 233.23 117.19ZM210.47 215.54L210.47 215.54Q130.38 284.95 101.72 276.80L101.72 276.80L101.72 275.96Q170.57 240.55 185.18 210.76L185.18 210.76Q188.55 203.46 189.11 196.43L189.11 196.43Q192.20 192.50 200.63 198.40L200.63 198.40Q210.75 205.71 210.47 215.54Z" stroke="#000" fill="black" /></svg>