<svg width="281" height="281" version="1.1" xmlns="http://www.w3.org/2000/svg" xmlns:xlink="http://www.w3.org/1999/xlink"><path d="M220.59 44.96L220.87 48.33L192.20 63.51L189.96 63.51L190.52 60.70L201.48 47.49Q205.41 41.87 205.41 35.97L205.41 35.97Q210.47 32.88 218.90 42.99L218.90 42.99Q219.74 44.12 220.59 44.96L220.59 44.96ZM248.69 114.09L250.37 115.77L249.25 117.18Q221.43 121.39 213.28 119.14L213.28 119.14Q205.69 116.90 195.30 105.09L195.30 105.09L181.53 89.64Q181.25 92.17 181.53 113.24L181.53 113.24L180.96 125.61Q180.40 129.54 179.00 132.91L179.00 132.91L174.50 133.19Q168.04 126.45 170.01 107.90L170.01 107.90Q170.85 98.91 170.85 96.10L170.85 96.10Q159.89 114.37 146.12 123.08L146.12 123.08Q140.50 126.73 135.72 127.57L135.72 127.57Q133.76 127.86 132.07 127.57L132.07 127.57L132.35 125.89Q155.96 107.34 162.14 92.17L162.14 92.17L163.82 87.67L142.47 92.45Q138.53 91.89 135.16 87.67L135.16 87.67Q136.29 86.83 168.60 78.96L168.60 78.96Q170.29 78.40 171.13 78.40L171.13 78.40L171.41 52.83Q170.29 38.78 164.39 30.35L164.39 30.35Q164.39 27.82 166.63 26.98L166.63 26.98Q178.72 26.98 188.27 37.09L188.27 37.09Q188.27 38.78 186.02 46.08L186.02 46.08Q183.21 53.95 181.53 75.03L181.53 75.03Q186.30 75.31 200.07 70.81L200.07 70.81Q213.84 66.03 221.43 72.22L221.43 72.22Q222.83 73.34 224.24 75.03L224.24 75.03Q224.24 77.56 220.87 78.40L220.87 78.40L208.50 79.52Q203.16 80.09 182.37 83.46L182.37 83.46Q205.69 102.28 248.69 114.09L248.69 114.09ZM159.61 72.78L159.61 72.78Q158.77 74.75 153.15 74.75L153.15 74.75Q148.37 71.94 140.22 61.54L140.22 61.54Q139.38 60.13 138.81 59.29L138.81 59.29Q138.81 56.48 139.66 54.51L139.66 54.51Q153.71 58.73 158.77 64.63L158.77 64.63Q159.61 67.16 159.61 72.78ZM103.13 49.74L102.85 49.74Q101.16 48.05 89.36 38.50L89.36 38.50Q82.90 33.16 80.09 28.38L80.09 28.38L80.65 24.73L97.79 26.98Q107.62 29.22 110.71 35.69L110.71 35.69Q114.09 41.87 112.12 47.49L112.12 47.49Q111.56 50.02 109.31 50.58L109.31 50.58Q108.75 50.86 107.90 50.86L107.90 50.86L103.13 49.74ZM249.25 185.74L249.25 186.87L246.72 188.55Q224.24 188.55 213.00 190.52L213.00 190.52L211.59 192.77L210.19 253.46Q210.19 258.80 205.41 262.17L205.41 262.17Q199.23 262.17 199.23 227.05L199.23 227.05L199.23 192.20Q181.25 195.30 174.50 200.35L174.50 200.35L173.66 200.92Q169.44 200.92 166.63 196.14L166.63 196.14Q166.63 193.33 171.97 185.74L171.97 185.74Q178.72 175.34 172.82 166.91L172.82 166.91Q172.53 166.35 171.97 165.51L171.97 165.51Q171.97 163.54 174.22 162.42L174.22 162.42Q182.37 164.10 187.15 168.60L187.15 168.60Q187.15 169.44 183.21 179.28L183.21 179.28Q180.12 186.87 183.21 188.55L183.21 188.55L199.51 184.90L200.35 157.64L200.35 157.36Q188.27 159.05 182.09 156.24L182.09 156.24Q179.84 155.39 179.28 153.43L179.28 153.43Q179.84 152.86 200.35 148.93L200.35 148.93Q200.07 141.34 195.01 129.82L195.01 129.82Q195.01 127.86 198.39 125.89L198.39 125.89Q209.63 126.17 215.53 134.88L215.53 134.88Q214.12 143.59 213.84 144.15L213.84 144.15L226.21 141.91Q233.79 141.91 233.79 148.09L233.79 148.09Q231.83 148.65 215.25 152.86L215.25 152.86Q214.40 153.15 213.28 153.43L213.28 153.43Q212.16 162.70 212.16 181.25L212.16 181.25Q230.98 177.87 236.88 178.72L236.88 178.72Q242.22 179.28 245.59 181.81L245.59 181.81Q248.69 184.62 249.25 185.74L249.25 185.74ZM135.72 105.09L135.72 105.09Q133.48 107.34 128.14 121.39L128.14 121.39Q123.36 133.76 118.30 133.76L118.30 133.76L114.65 130.38L114.65 130.10Q98.35 132.91 81.21 137.97L81.21 137.97L66.60 143.03Q66.04 143.03 65.75 143.03L65.75 143.03Q62.66 143.59 60.13 141.91L60.13 141.91Q58.45 141.06 57.89 139.38L57.89 139.38Q57.89 137.13 73.62 134.04L73.62 134.04Q73.06 127.57 72.50 114.93L72.50 114.93L63.23 115.77Q60.98 115.49 59.57 114.09L59.57 114.09Q59.01 113.24 58.73 112.40L58.73 112.40Q59.85 111.00 66.32 109.59L66.32 109.59Q71.37 108.19 71.09 104.25L71.09 104.25Q71.09 99.19 66.04 89.64L66.04 89.64Q66.60 87.11 68.00 86.83L68.00 86.83Q75.03 88.23 80.09 93.01L80.09 93.01L80.65 104.25Q94.14 100.88 96.10 100.04L96.10 100.04Q96.10 89.36 94.98 84.30L94.98 84.30L93.85 78.96Q93.85 75.87 95.82 75.59L95.82 75.59Q98.91 75.03 105.94 79.80L105.94 79.80Q108.19 81.21 109.03 82.05L109.03 82.05Q109.03 83.18 105.94 96.66L105.94 96.66L123.08 93.85L124.48 93.85L133.19 99.19Q135.72 101.44 135.72 105.09ZM118.58 103.97L118.58 103.97Q115.49 100.60 107.62 103.69L107.62 103.69L105.09 104.81Q102.85 119.71 102.85 123.64L102.85 123.64Q111.00 121.67 114.65 122.80L114.65 122.80Q117.46 117.46 118.58 103.97ZM94.42 126.73L95.82 107.06L81.21 111.56Q81.77 130.95 82.05 130.95L82.05 130.95Q85.14 129.26 94.42 126.73L94.42 126.73ZM174.50 152.86L174.50 152.86Q174.50 155.11 171.41 158.48L171.41 158.48L170.29 160.17L147.53 201.48Q134.88 221.71 117.18 233.79L117.18 233.79Q111.56 237.73 103.41 237.73L103.41 237.73Q135.16 208.78 146.40 186.87L146.40 186.87Q154.27 171.69 155.39 156.24L155.39 156.24L144.15 157.92L141.06 156.80L140.50 156.24Q130.67 166.63 128.42 168.60L128.42 168.60Q135.44 172.25 139.94 178.72L139.94 178.72Q144.15 184.90 138.81 187.43L138.81 187.43Q134.04 187.15 125.33 172.53L125.33 172.53Q124.76 171.69 124.48 171.13L124.48 171.13Q118.30 174.78 118.02 174.78L118.02 174.78Q117.18 175.06 116.62 175.06L116.62 175.06Q130.38 157.36 133.76 150.62L133.76 150.62Q138.25 141.34 138.25 132.91L138.25 132.91Q147.81 132.91 151.18 137.97L151.18 137.97Q150.90 138.25 143.31 151.18L143.31 151.18L142.47 152.58Q145.28 152.58 154.55 148.65L154.55 148.65Q159.05 146.68 162.98 146.68L162.98 146.68L171.97 150.62Q173.38 151.46 174.50 152.86ZM127.01 152.86L127.01 152.86Q107.62 164.10 103.69 167.20L103.69 167.20L102.85 191.64Q103.69 192.77 105.94 192.77L105.94 192.77L120.27 184.34L120.83 184.34Q119.71 189.39 111.00 196.98L111.00 196.98L105.38 202.60Q105.09 202.88 105.09 203.16L105.09 203.16L100.60 210.47Q99.76 211.31 98.35 211.87L98.35 211.87Q92.73 211.59 89.36 206.82L89.36 206.82Q89.36 204.57 92.73 196.98L92.73 196.98Q93.57 194.73 94.14 193.05L94.14 193.05Q97.79 172.53 94.42 157.08L94.42 157.08Q93.01 149.21 89.36 143.59L89.36 143.59Q89.08 137.13 101.44 146.12L101.44 146.12Q103.69 147.53 104.53 148.37L104.53 148.37L103.97 160.73Q103.97 161.58 104.25 162.42L104.25 162.42L112.96 151.74Q115.21 148.37 115.77 145.00L115.77 145.00Q118.02 140.50 124.48 148.93L124.48 148.93Q126.45 151.46 127.01 152.86ZM127.01 63.22L127.01 63.22Q127.01 65.75 124.48 67.16L124.48 67.16Q123.08 67.72 112.40 69.97L112.40 69.97Q76.43 78.68 66.88 79.80L66.88 79.80Q61.82 80.37 57.04 80.65L57.04 80.65Q53.95 87.95 52.55 111.56L52.55 111.56L51.99 119.43Q44.40 197.26 11.24 223.68L11.24 223.68Q10.40 224.24 8.15 224.24L8.15 224.24L8.43 220.59Q41.87 170.57 43.56 103.41L43.56 103.41Q43.84 92.73 42.71 86.27L42.71 86.27Q41.03 77.28 36.53 71.09L36.53 71.09Q35.69 64.35 51.42 72.22L51.42 72.22Q53.11 73.06 53.95 73.62L53.95 73.62Q74.47 70.25 93.01 65.19L93.01 65.19L111.84 59.57Q112.68 59.57 113.81 59.29L113.81 59.29Q118.02 58.73 122.52 60.41L122.52 60.41Q125.05 61.54 127.01 63.22ZM89.08 163.82L89.08 163.82Q89.08 165.23 84.30 166.91L84.30 166.91L68.28 171.13L66.60 191.36L68.00 192.77L85.99 182.37Q87.11 181.53 88.23 181.25L88.23 181.25L88.23 183.77L62.38 216.09Q60.98 218.06 58.73 217.21L58.73 217.21L57.04 215.81Q53.39 211.59 52.55 205.41L52.55 205.41Q52.55 204.01 53.11 202.32L53.11 202.32Q62.66 176.47 58.17 157.64L58.17 157.64Q57.32 154.27 56.20 150.62L56.20 150.62Q58.45 150.05 62.38 150.62L62.38 150.62Q68.00 152.86 70.53 158.48L70.53 158.48L69.69 164.10L80.37 161.01Q85.71 160.45 89.08 163.82Z" stroke="#000" fill="black" /></svg>